<?xml version="1.0" encoding="UTF-8"?>
<svg version="1.1" viewBox="0 0 2048 1537" width="955" height="717" xmlns="http://www.w3.org/2000/svg">
<path transform="translate(0)" d="m0 0h2048v1537h-2048z" fill="#FE6E5E"/>
<path transform="translate(872,492)" d="m0 0h32l22 3 19 5 21 8 21 11 17 12 14 12 2 2 4-1 15-13 21-14 17-9 25-9 22-5 15-2h32l26 4 21 6 21 9 18 10 14 10 13 11 12 12 9 11 10 14 10 18 8 19 6 20 4 21 1 10v26l-2 17-5 22-6 18-12 25-10 15-11 14-275 275-4-2-23-23-7-6v-2h-2l-4-5-8-7-224-224-7-8-10-13-10-16-9-17-8-22-5-21-2-13-1-15v-11l2-21 5-23 7-21 8-17 11-18 10-13 9-10 15-15 16-12 13-8 16-8 15-6 21-6 16-3z" fill="#FFF0F0"/>
</svg>
